name C:\Users\u0101727\Documents\MyRepositories\paper-ad\predictivesimulations_2d/Results/PredSim_2D/IK_c26.mot
datacolumns 11
datarows 38
range 0.63316035 0.98811389
endheader
time	pelvis_tilt	pelvis_tx	pelvis_ty	hip_flexion_l	hip_flexion_r	knee_angle_l	knee_angle_r	ankle_angle_l	ankle_angle_r	lumbar_extension	
          0.63316035	        -15.04420462	          0.85492893	          0.89990962	         25.68498722	         11.36318840	        -10.65573500	        -40.88834349	          8.50017316	         -0.31080294	         10.29385164	
          0.64275369	        -15.06128147	          0.86690111	          0.90134682	         24.76614839	         12.63610624	        -10.40862338	        -41.78506214	          8.60288367	          0.66542058	         10.25548666	
          0.65234703	        -15.07588004	          0.87881747	          0.90254043	         23.83202003	         13.94147124	        -10.13662969	        -42.57386887	          8.74637697	          1.72160819	         10.21313834	
          0.66194037	        -15.08798418	          0.89068564	          0.90349370	         22.88704134	         15.27427118	         -9.84758811	        -43.24664272	          8.92478445	          2.84009006	         10.16712543	
          0.67153371	        -15.09771603	          0.90251289	          0.90421724	         21.93512185	         16.62854765	         -9.54857345	        -43.79583937	          9.13162566	          4.00305767	         10.11792037	
          0.68112705	        -15.10523956	          0.91430547	          0.90472801	         20.98042694	         17.99847120	         -9.24711897	        -44.21376064	          9.35923224	          5.19266753	         10.06595293	
          0.69072039	        -15.11069717	          0.92606894	          0.90504674	         20.02751408	         19.37852704	         -8.95107361	        -44.49264136	          9.59954973	          6.39110002	         10.01156813	
          0.70031373	        -15.11423630	          0.93780927	          0.90519486	         19.08116397	         20.76226120	         -8.66875381	        -44.62549055	          9.84463340	          7.58056289	          9.95514342	
          0.70990706	        -15.11607761	          0.94953352	          0.90519262	         18.14461318	         22.14273869	         -8.40578093	        -44.60667680	         10.08714229	          8.74338367	          9.89721408	
          0.71950040	        -15.11653635	          0.96125003	          0.90505812	         17.21870709	         23.51305160	         -8.16353337	        -44.43214870	         10.32041835	          9.86219388	          9.83852078	
          0.72909374	        -15.11589354	          0.97296752	          0.90480689	         16.30488751	         24.86535656	         -7.94482813	        -44.09983848	         10.53767706	         10.92025909	          9.77979042	
          0.73868708	        -15.11439351	          0.98469422	          0.90445204	         15.40530462	         26.19164491	         -7.75329603	        -43.60885788	         10.73284602	         11.90213241	          9.72164780	
          0.74828042	        -15.11227767	          0.99643919	          0.90400423	         14.52153406	         27.48311445	         -7.59198170	        -42.96223085	         10.90129380	         12.79441416	          9.66482688	
          0.75787376	        -15.10980481	          1.00821088	          0.90347262	         13.65450795	         28.73177335	         -7.46289891	        -42.16443486	         11.04007268	         13.58687248	          9.61001728	
          0.76746710	        -15.10723935	          1.02001590	          0.90286526	         12.80507867	         29.93139913	         -7.36712271	        -41.21986067	         11.14805217	         14.27341693	          9.55770959	
          0.77706044	        -15.10481989	          1.03186057	          0.90218871	         11.97395376	         31.07629387	         -7.30632198	        -40.13520494	         11.22595316	         14.85244467	          9.50834379	
          0.78665377	        -15.10276775	          1.04374923	          0.90144831	         11.16145531	         32.16351872	         -7.28139853	        -38.91593743	         11.27658837	         15.32678016	          9.46210843	
          0.79624711	        -15.10129403	          1.05568550	          0.90064784	         10.36747003	         33.19169665	         -7.29275870	        -37.56706052	         11.30440632	         15.70269910	          9.41907156	
          0.80584045	        -15.10061630	          1.06767274	          0.89978928	          9.59175305	         34.16023792	         -7.34040410	        -36.09396476	         11.31471634	         15.98856809	          9.37921210	
          0.81543379	        -15.10101385	          1.07971555	          0.89887276	          8.83369892	         35.06758848	         -7.42379894	        -34.50427773	         11.31277831	         16.19352538	          9.34261247	
          0.82502713	        -15.10287250	          1.09182044	          0.89789717	          8.09227255	         35.91025778	         -7.54193925	        -32.80589948	         11.30220943	         16.32668506	          9.30958402	
          0.83462047	        -15.10651212	          1.10399554	          0.89686137	          7.36712788	         36.68368955	         -7.69513064	        -31.01033648	         11.28385124	         16.39682584	          9.28051093	
          0.84421381	        -15.11200531	          1.11625281	          0.89576803	          6.65914761	         37.38118687	         -7.88700731	        -29.14362211	         11.25608661	         16.41208990	          9.25598292	
          0.85380715	        -15.11938421	          1.12861047	          0.89462956	          5.97035079	         37.98982783	         -8.12376742	        -27.23982215	         11.21285306	         16.37976470	          9.23730048	
          0.86340048	        -15.12867199	          1.14108999	          0.89346763	          5.30389320	         38.49386050	         -8.41251992	        -25.33111715	         11.14172126	         16.30624629	          9.22617976	
          0.87299382	        -15.13955194	          1.15371012	          0.89230475	          4.66418784	         38.88386523	         -8.76173651	        -23.44535720	         11.02640434	         16.19692523	          9.22380453	
          0.88258716	        -15.15123277	          1.16648545	          0.89115889	          4.05648067	         39.15969812	         -9.18122849	        -21.60435981	         10.85036878	         16.05593027	          9.23058127	
          0.89218050	        -15.16250493	          1.17942881	          0.89004431	          3.48605226	         39.32823715	         -9.68129322	        -19.82971178	         10.59932578	         15.88586594	          9.24643776	
          0.90177384	        -15.17214555	          1.19255406	          0.88897319	          2.95779530	         39.39672340	        -10.27162910	        -18.13632631	         10.26043165	         15.68793090	          9.27146137	
          0.91136718	        -15.17900851	          1.20587567	          0.88795470	          2.47614435	         39.37198829	        -10.96081254	        -16.53604047	          9.82154655	         15.46202558	          9.30589012	
          0.92096052	        -15.18183727	          1.21940782	          0.88699411	          2.04571210	         39.26163326	        -11.75784060	        -15.04592886	          9.27182871	         15.20687160	          9.34986318	
          0.93055385	        -15.17936670	          1.23316495	          0.88609247	          1.67200977	         39.07071386	        -12.67299548	        -13.68058811	          8.60031910	         14.92045428	          9.40367214	
          0.94014719	        -15.17019235	          1.24716062	          0.88524550	          1.36094703	         38.80399369	        -13.71720099	        -12.45985846	          7.79658301	         14.59989657	          9.46757006	
          0.94974053	        -15.15275803	          1.26140662	          0.88444205	          1.11817678	         38.46679244	        -14.90065848	        -11.41248628	          6.85311321	         14.24140228	          9.54171069	
          0.95933387	        -15.12562304	          1.27591405	          0.88366302	          0.94848496	         38.05942170	        -16.23266298	        -10.56930744	          5.76992917	         13.84061119	          9.62668520	
          0.96892721	        -15.08759614	          1.29069114	          0.88287687	          0.85480069	         37.57485121	        -17.72619186	         -9.96395626	          4.56937272	         13.39253936	          9.72355260	
          0.97852055	        -15.03852172	          1.30573164	          0.88203979	          0.83985287	         36.99508762	        -19.38718984	         -9.64460861	          3.26497476	         12.89239005	          9.83345765	
          0.98811389	        -14.98095652	          1.32101853	          0.88117518	          0.91087525	         36.25204826	        -21.21255089	         -9.73182518	          1.83677603	         12.33809612	          9.96037567	
